<svg width="1520" height="227" viewBox="0 0 1520 227" fill="none" xmlns="http://www.w3.org/2000/svg">
<path d="M26 177.5C128.706 168.863 486.706 128.098 520 65C561.617 -13.8724 324.456 31.4752 376 159.5C427.544 287.525 613.186 80.4047 642 65C695.453 36.4231 608.057 191.769 689 197.484C769.943 203.2 873.798 46.9788 858.144 49.265C842.49 51.5512 802.883 197.484 844.5 197.484C886.117 197.484 958.941 2.01776 958.941 56.1235C958.941 106.901 901.646 205.486 921.5 197.484C941.354 189.483 1005.52 37.4532 1096.39 49.265C1187.26 61.0768 1101.83 183.386 1125.5 197.484C1149.17 211.582 1327.91 187.309 1494 65" stroke="#aaa" stroke-width="50" stroke-linecap="round"/>
</svg>
