<svg width="226" height="1117" viewBox="0 0 226 1117" fill="none" xmlns="http://www.w3.org/2000/svg">
<path d="M49.0316 -167.469C57.6682 -64.7622 98.4336 293.238 161.532 326.531C240.404 368.149 195.056 130.987 67.0316 182.531C-60.9931 234.076 146.127 419.717 161.532 448.531C190.109 501.985 34.7629 414.588 29.0475 495.531C23.3321 576.475 179.553 680.329 177.267 664.675C174.98 649.021 29.0475 609.414 29.0474 651.031C29.0474 692.649 224.514 765.473 170.408 765.473C119.631 765.473 21.0459 708.177 29.0474 728.031C37.049 747.885 189.078 812.053 177.267 902.923C165.455 993.794 43.1454 908.359 29.0474 932.031C14.9495 955.704 39.2221 1134.45 161.532 1300.53" stroke="#aaa" stroke-width="50" stroke-linecap="round"/>
</svg>
